<mxfile host="www.draw.io" modified="2019-12-21T18:13:04.047Z" agent="Mozilla/5.0 (Windows NT 10.0; Win64; x64) AppleWebKit/537.36 (KHTML, like Gecko) Chrome/79.0.3945.88 Safari/537.36" etag="qs483Olpbry1UcotyLZn" version="12.4.3" type="github" pages="1">
  <diagram id="5nT_LDNC0BqVq9BjIoti" name="Page-1">
    <mxGraphModel dx="917" dy="492" grid="1" gridSize="10" guides="1" tooltips="1" connect="1" arrows="1" fold="1" page="1" pageScale="1" pageWidth="850" pageHeight="1100" math="0" shadow="0">
      <root>
        <mxCell id="0"/>
        <mxCell id="1" parent="0"/>
        <mxCell id="a6xLcFi5BjF4kJwuTNR5-1" value="Player" style="rounded=0;whiteSpace=wrap;html=1;fillColor=#FFFFFF;align=left;spacingLeft=4;fontSize=10;fontFamily=Helvetica;" vertex="1" parent="1">
          <mxGeometry x="80" y="510" width="200" height="20" as="geometry"/>
        </mxCell>
        <mxCell id="a6xLcFi5BjF4kJwuTNR5-17" value="PlayerEntityDescriptor" style="rounded=0;whiteSpace=wrap;html=1;fillColor=#CCFFCC;align=left;spacingLeft=4;fontSize=10;fontFamily=Helvetica;" vertex="1" parent="1">
          <mxGeometry x="80" y="250" width="200" height="20" as="geometry"/>
        </mxCell>
        <mxCell id="a6xLcFi5BjF4kJwuTNR5-18" value="IPositionComponent" style="rounded=0;whiteSpace=wrap;html=1;fillColor=#CC99FF;align=left;spacingLeft=4;fontSize=10;fontFamily=Helvetica;" vertex="1" parent="1">
          <mxGeometry x="400" y="50" width="200" height="20" as="geometry"/>
        </mxCell>
        <mxCell id="a6xLcFi5BjF4kJwuTNR5-19" value="IPlayerMovementComponent" style="rounded=0;whiteSpace=wrap;html=1;fillColor=#CC99FF;align=left;spacingLeft=4;fontSize=10;fontFamily=Helvetica;" vertex="1" parent="1">
          <mxGeometry x="80" y="50" width="200" height="20" as="geometry"/>
        </mxCell>
        <mxCell id="a6xLcFi5BjF4kJwuTNR5-22" value="navMeshDestination" style="rounded=0;whiteSpace=wrap;html=1;fillColor=#CCFFFF;align=left;spacingLeft=4;fontSize=10;fontFamily=Helvetica;" vertex="1" parent="1">
          <mxGeometry x="100" y="70" width="180" height="20" as="geometry"/>
        </mxCell>
        <mxCell id="a6xLcFi5BjF4kJwuTNR5-23" value="position" style="rounded=0;whiteSpace=wrap;html=1;fillColor=#CCFFFF;align=left;spacingLeft=4;fontSize=10;fontFamily=Helvetica;" vertex="1" parent="1">
          <mxGeometry x="420" y="70" width="180" height="20" as="geometry"/>
        </mxCell>
        <mxCell id="a6xLcFi5BjF4kJwuTNR5-27" value="PlayerEntityView" style="rounded=0;whiteSpace=wrap;html=1;fillColor=#FFD966;align=left;spacingLeft=4;fontSize=10;fontFamily=Helvetica;" vertex="1" parent="1">
          <mxGeometry x="80" y="150" width="180" height="20" as="geometry"/>
        </mxCell>
        <mxCell id="a6xLcFi5BjF4kJwuTNR5-28" value="TargetEntityView" style="rounded=0;whiteSpace=wrap;html=1;fillColor=#FFD966;align=left;spacingLeft=4;fontSize=10;fontFamily=Helvetica;" vertex="1" parent="1">
          <mxGeometry x="400" y="150" width="180" height="20" as="geometry"/>
        </mxCell>
        <mxCell id="a6xLcFi5BjF4kJwuTNR5-32" value="IPlayerMovementComponent" style="rounded=0;whiteSpace=wrap;html=1;fillColor=#CC99FF;align=left;spacingLeft=4;fontSize=10;fontFamily=Helvetica;" vertex="1" parent="1">
          <mxGeometry x="100" y="170" width="160" height="20" as="geometry"/>
        </mxCell>
        <mxCell id="a6xLcFi5BjF4kJwuTNR5-36" value="IPositionComponent" style="rounded=0;whiteSpace=wrap;html=1;fillColor=#CC99FF;align=left;spacingLeft=4;fontSize=10;fontFamily=Helvetica;" vertex="1" parent="1">
          <mxGeometry x="420" y="170" width="160" height="20" as="geometry"/>
        </mxCell>
        <mxCell id="a6xLcFi5BjF4kJwuTNR5-39" value="PlayerEntityView" style="rounded=0;whiteSpace=wrap;html=1;fillColor=#FFD966;align=left;spacingLeft=4;fontSize=10;fontFamily=Helvetica;" vertex="1" parent="1">
          <mxGeometry x="100" y="270" width="180" height="20" as="geometry"/>
        </mxCell>
        <mxCell id="a6xLcFi5BjF4kJwuTNR5-41" value="Build Player Entity" style="rounded=1;whiteSpace=wrap;html=1;fillColor=#CCFFE6;fontFamily=Helvetica;fontSize=10;align=center;verticalAlign=middle;spacingLeft=4;spacingTop=0;" vertex="1" parent="1">
          <mxGeometry x="300" y="690" width="160" height="20" as="geometry"/>
        </mxCell>
        <mxCell id="a6xLcFi5BjF4kJwuTNR5-42" style="edgeStyle=orthogonalEdgeStyle;rounded=0;orthogonalLoop=1;jettySize=auto;html=1;fillColor=#FFFFFF;fontFamily=Helvetica;fontSize=10;" edge="1" parent="1" source="a6xLcFi5BjF4kJwuTNR5-43" target="a6xLcFi5BjF4kJwuTNR5-41">
          <mxGeometry relative="1" as="geometry">
            <Array as="points">
              <mxPoint x="130" y="670"/>
              <mxPoint x="380" y="670"/>
            </Array>
          </mxGeometry>
        </mxCell>
        <mxCell id="a6xLcFi5BjF4kJwuTNR5-43" value="PlayerEntityDescriptor" style="rounded=0;whiteSpace=wrap;html=1;fillColor=#CCFFCC;align=center;spacingLeft=4;fontSize=10;fontFamily=Helvetica;" vertex="1" parent="1">
          <mxGeometry x="60" y="620" width="140" height="20" as="geometry"/>
        </mxCell>
        <mxCell id="a6xLcFi5BjF4kJwuTNR5-44" style="edgeStyle=orthogonalEdgeStyle;rounded=0;orthogonalLoop=1;jettySize=auto;html=1;fillColor=#FFFFFF;fontFamily=Helvetica;fontSize=10;" edge="1" parent="1" source="a6xLcFi5BjF4kJwuTNR5-45" target="a6xLcFi5BjF4kJwuTNR5-41">
          <mxGeometry relative="1" as="geometry">
            <mxPoint x="380" y="690" as="targetPoint"/>
            <Array as="points">
              <mxPoint x="610" y="670"/>
              <mxPoint x="380" y="670"/>
            </Array>
          </mxGeometry>
        </mxCell>
        <mxCell id="a6xLcFi5BjF4kJwuTNR5-45" value="PlayerMovementImplementor" style="rounded=0;whiteSpace=wrap;html=1;fillColor=#A9C4EB;align=center;spacingLeft=0;fontSize=10;fontFamily=Helvetica;" vertex="1" parent="1">
          <mxGeometry x="540" y="620" width="140" height="20" as="geometry"/>
        </mxCell>
        <mxCell id="a6xLcFi5BjF4kJwuTNR5-46" style="edgeStyle=orthogonalEdgeStyle;rounded=0;orthogonalLoop=1;jettySize=auto;html=1;fillColor=#FFFFFF;fontFamily=Helvetica;fontSize=10;" edge="1" parent="1" source="a6xLcFi5BjF4kJwuTNR5-47" target="a6xLcFi5BjF4kJwuTNR5-41">
          <mxGeometry relative="1" as="geometry">
            <Array as="points">
              <mxPoint x="450" y="670"/>
              <mxPoint x="380" y="670"/>
            </Array>
          </mxGeometry>
        </mxCell>
        <mxCell id="a6xLcFi5BjF4kJwuTNR5-47" value="Player Group" style="rounded=0;whiteSpace=wrap;html=1;fillColor=#FFE6CC;align=center;spacingLeft=4;fontSize=10;fontFamily=Helvetica;" vertex="1" parent="1">
          <mxGeometry x="380" y="620" width="140" height="20" as="geometry"/>
        </mxCell>
        <mxCell id="a6xLcFi5BjF4kJwuTNR5-48" style="edgeStyle=orthogonalEdgeStyle;rounded=0;orthogonalLoop=1;jettySize=auto;html=1;fillColor=#FFFFFF;fontFamily=Helvetica;fontSize=10;" edge="1" parent="1" source="a6xLcFi5BjF4kJwuTNR5-49" target="a6xLcFi5BjF4kJwuTNR5-41">
          <mxGeometry relative="1" as="geometry">
            <Array as="points">
              <mxPoint x="290" y="670"/>
              <mxPoint x="380" y="670"/>
            </Array>
          </mxGeometry>
        </mxCell>
        <mxCell id="a6xLcFi5BjF4kJwuTNR5-49" value="Player GameObject ID" style="rounded=0;whiteSpace=wrap;html=1;fillColor=#CCFFFF;align=center;spacingLeft=4;fontSize=10;fontFamily=Helvetica;" vertex="1" parent="1">
          <mxGeometry x="220" y="620" width="140" height="20" as="geometry"/>
        </mxCell>
        <mxCell id="a6xLcFi5BjF4kJwuTNR5-51" value="&lt;font style=&quot;font-size: 16px;&quot;&gt;Components&lt;/font&gt;" style="text;html=1;align=left;verticalAlign=middle;resizable=0;points=[];;autosize=1;fontSize=16;" vertex="1" parent="1">
          <mxGeometry x="80" y="20" width="110" height="20" as="geometry"/>
        </mxCell>
        <mxCell id="a6xLcFi5BjF4kJwuTNR5-52" value="&lt;font style=&quot;font-size: 16px&quot;&gt;Entity View Structs&lt;/font&gt;" style="text;html=1;align=left;verticalAlign=middle;resizable=0;points=[];;autosize=1;fontSize=16;" vertex="1" parent="1">
          <mxGeometry x="80" y="120" width="150" height="20" as="geometry"/>
        </mxCell>
        <mxCell id="a6xLcFi5BjF4kJwuTNR5-53" value="&lt;font style=&quot;font-size: 16px&quot;&gt;Entity Descriptors&lt;/font&gt;" style="text;html=1;align=left;verticalAlign=middle;resizable=0;points=[];;autosize=1;fontSize=16;" vertex="1" parent="1">
          <mxGeometry x="80" y="220" width="140" height="20" as="geometry"/>
        </mxCell>
        <mxCell id="a6xLcFi5BjF4kJwuTNR5-54" value="TargetEntityDescription" style="rounded=0;whiteSpace=wrap;html=1;fillColor=#CCFFCC;align=left;spacingLeft=4;fontSize=10;fontFamily=Helvetica;" vertex="1" parent="1">
          <mxGeometry x="400" y="250" width="200" height="20" as="geometry"/>
        </mxCell>
        <mxCell id="a6xLcFi5BjF4kJwuTNR5-55" value="TargetEntityView" style="rounded=0;whiteSpace=wrap;html=1;fillColor=#FFD966;align=left;spacingLeft=4;fontSize=10;fontFamily=Helvetica;" vertex="1" parent="1">
          <mxGeometry x="420" y="270" width="180" height="20" as="geometry"/>
        </mxCell>
        <mxCell id="a6xLcFi5BjF4kJwuTNR5-56" value="&lt;font style=&quot;font-size: 16px&quot;&gt;Implementors&lt;/font&gt;" style="text;html=1;align=left;verticalAlign=middle;resizable=0;points=[];;autosize=1;fontSize=16;" vertex="1" parent="1">
          <mxGeometry x="80" y="320" width="110" height="20" as="geometry"/>
        </mxCell>
        <mxCell id="a6xLcFi5BjF4kJwuTNR5-57" value="PlayerMovementImplementor" style="rounded=0;whiteSpace=wrap;html=1;fillColor=#A9C4EB;align=left;spacingLeft=4;fontSize=10;fontFamily=Helvetica;" vertex="1" parent="1">
          <mxGeometry x="80" y="350" width="200" height="20" as="geometry"/>
        </mxCell>
        <mxCell id="a6xLcFi5BjF4kJwuTNR5-58" value="IPlayerMovementComponent" style="rounded=0;whiteSpace=wrap;html=1;fillColor=#CC99FF;align=left;spacingLeft=4;fontSize=10;fontFamily=Helvetica;" vertex="1" parent="1">
          <mxGeometry x="100" y="370" width="180" height="20" as="geometry"/>
        </mxCell>
        <mxCell id="a6xLcFi5BjF4kJwuTNR5-63" value="TargetPositionImplementor" style="rounded=0;whiteSpace=wrap;html=1;fillColor=#A9C4EB;align=left;spacingLeft=4;fontSize=10;fontFamily=Helvetica;" vertex="1" parent="1">
          <mxGeometry x="400" y="350" width="200" height="20" as="geometry"/>
        </mxCell>
        <mxCell id="a6xLcFi5BjF4kJwuTNR5-65" value="IPositionComponent" style="rounded=0;whiteSpace=wrap;html=1;fillColor=#CC99FF;align=left;spacingLeft=4;fontSize=10;fontFamily=Helvetica;" vertex="1" parent="1">
          <mxGeometry x="420" y="370" width="180" height="20" as="geometry"/>
        </mxCell>
        <mxCell id="a6xLcFi5BjF4kJwuTNR5-75" style="edgeStyle=orthogonalEdgeStyle;rounded=0;orthogonalLoop=1;jettySize=auto;html=1;entryX=1;entryY=0.5;entryDx=0;entryDy=0;fontSize=16;" edge="1" parent="1" source="a6xLcFi5BjF4kJwuTNR5-66" target="a6xLcFi5BjF4kJwuTNR5-74">
          <mxGeometry relative="1" as="geometry">
            <Array as="points">
              <mxPoint x="620" y="400"/>
              <mxPoint x="620" y="440"/>
            </Array>
          </mxGeometry>
        </mxCell>
        <mxCell id="a6xLcFi5BjF4kJwuTNR5-66" value="position" style="rounded=0;whiteSpace=wrap;html=1;fillColor=#CCFFFF;align=left;spacingLeft=4;fontSize=10;fontFamily=Helvetica;" vertex="1" parent="1">
          <mxGeometry x="440" y="390" width="160" height="20" as="geometry"/>
        </mxCell>
        <mxCell id="a6xLcFi5BjF4kJwuTNR5-67" value="_navMeshAgent" style="rounded=0;whiteSpace=wrap;html=1;fillColor=#D4E1F5;align=left;spacingLeft=4;fontSize=10;fontFamily=Helvetica;" vertex="1" parent="1">
          <mxGeometry x="100" y="410" width="180" height="20" as="geometry"/>
        </mxCell>
        <mxCell id="a6xLcFi5BjF4kJwuTNR5-72" style="edgeStyle=orthogonalEdgeStyle;rounded=0;orthogonalLoop=1;jettySize=auto;html=1;entryX=1;entryY=0.5;entryDx=0;entryDy=0;fontSize=16;" edge="1" parent="1" source="a6xLcFi5BjF4kJwuTNR5-68" target="a6xLcFi5BjF4kJwuTNR5-70">
          <mxGeometry relative="1" as="geometry">
            <Array as="points">
              <mxPoint x="300" y="400"/>
              <mxPoint x="300" y="440"/>
            </Array>
          </mxGeometry>
        </mxCell>
        <mxCell id="a6xLcFi5BjF4kJwuTNR5-68" value="navMeshDestination" style="rounded=0;whiteSpace=wrap;html=1;fillColor=#CCFFFF;align=left;spacingLeft=4;fontSize=10;fontFamily=Helvetica;" vertex="1" parent="1">
          <mxGeometry x="120" y="390" width="160" height="20" as="geometry"/>
        </mxCell>
        <mxCell id="a6xLcFi5BjF4kJwuTNR5-70" value="destination" style="rounded=0;whiteSpace=wrap;html=1;fillColor=#D4E1F5;align=left;spacingLeft=4;fontSize=10;fontFamily=Helvetica;" vertex="1" parent="1">
          <mxGeometry x="120" y="430" width="160" height="20" as="geometry"/>
        </mxCell>
        <mxCell id="a6xLcFi5BjF4kJwuTNR5-73" value="_transform" style="rounded=0;whiteSpace=wrap;html=1;fillColor=#D4E1F5;align=left;spacingLeft=4;fontSize=10;fontFamily=Helvetica;" vertex="1" parent="1">
          <mxGeometry x="420" y="410" width="180" height="20" as="geometry"/>
        </mxCell>
        <mxCell id="a6xLcFi5BjF4kJwuTNR5-74" value="position" style="rounded=0;whiteSpace=wrap;html=1;fillColor=#D4E1F5;align=left;spacingLeft=4;fontSize=10;fontFamily=Helvetica;" vertex="1" parent="1">
          <mxGeometry x="440" y="430" width="160" height="20" as="geometry"/>
        </mxCell>
        <mxCell id="a6xLcFi5BjF4kJwuTNR5-76" value="&lt;font style=&quot;font-size: 16px&quot;&gt;Game Objects&lt;/font&gt;" style="text;html=1;align=left;verticalAlign=middle;resizable=0;points=[];;autosize=1;fontSize=16;" vertex="1" parent="1">
          <mxGeometry x="80" y="480" width="120" height="20" as="geometry"/>
        </mxCell>
        <mxCell id="a6xLcFi5BjF4kJwuTNR5-77" value="Target" style="rounded=0;whiteSpace=wrap;html=1;fillColor=#FFFFFF;align=left;spacingLeft=4;fontSize=10;fontFamily=Helvetica;" vertex="1" parent="1">
          <mxGeometry x="400" y="510" width="200" height="20" as="geometry"/>
        </mxCell>
        <mxCell id="a6xLcFi5BjF4kJwuTNR5-78" value="PlayerMovementImplementor" style="rounded=0;whiteSpace=wrap;html=1;fillColor=#A9C4EB;align=left;spacingLeft=4;fontSize=10;fontFamily=Helvetica;" vertex="1" parent="1">
          <mxGeometry x="100" y="530" width="180" height="20" as="geometry"/>
        </mxCell>
        <mxCell id="a6xLcFi5BjF4kJwuTNR5-79" value="TargetPositionImplementor" style="rounded=0;whiteSpace=wrap;html=1;fillColor=#A9C4EB;align=left;spacingLeft=4;fontSize=10;fontFamily=Helvetica;" vertex="1" parent="1">
          <mxGeometry x="420" y="530" width="180" height="20" as="geometry"/>
        </mxCell>
        <mxCell id="a6xLcFi5BjF4kJwuTNR5-80" value="&lt;font style=&quot;font-size: 16px&quot;&gt;Building Entities&lt;/font&gt;" style="text;html=1;align=left;verticalAlign=middle;resizable=0;points=[];;autosize=1;fontSize=16;" vertex="1" parent="1">
          <mxGeometry x="80" y="580" width="130" height="20" as="geometry"/>
        </mxCell>
        <mxCell id="a6xLcFi5BjF4kJwuTNR5-81" value="Build Target Entity" style="rounded=1;whiteSpace=wrap;html=1;fillColor=#CCFFE6;fontFamily=Helvetica;fontSize=10;align=center;verticalAlign=middle;spacingLeft=4;spacingTop=0;" vertex="1" parent="1">
          <mxGeometry x="300" y="810" width="160" height="20" as="geometry"/>
        </mxCell>
        <mxCell id="a6xLcFi5BjF4kJwuTNR5-82" style="edgeStyle=orthogonalEdgeStyle;rounded=0;orthogonalLoop=1;jettySize=auto;html=1;fillColor=#FFFFFF;fontFamily=Helvetica;fontSize=10;" edge="1" parent="1" source="a6xLcFi5BjF4kJwuTNR5-83" target="a6xLcFi5BjF4kJwuTNR5-81">
          <mxGeometry relative="1" as="geometry">
            <Array as="points">
              <mxPoint x="130" y="790"/>
              <mxPoint x="380" y="790"/>
            </Array>
          </mxGeometry>
        </mxCell>
        <mxCell id="a6xLcFi5BjF4kJwuTNR5-83" value="&lt;span style=&quot;text-align: left&quot;&gt;TargetEntityDescription&lt;/span&gt;" style="rounded=0;whiteSpace=wrap;html=1;fillColor=#CCFFCC;align=center;spacingLeft=4;fontSize=10;fontFamily=Helvetica;" vertex="1" parent="1">
          <mxGeometry x="60" y="740" width="140" height="20" as="geometry"/>
        </mxCell>
        <mxCell id="a6xLcFi5BjF4kJwuTNR5-84" style="edgeStyle=orthogonalEdgeStyle;rounded=0;orthogonalLoop=1;jettySize=auto;html=1;fillColor=#FFFFFF;fontFamily=Helvetica;fontSize=10;" edge="1" parent="1" source="a6xLcFi5BjF4kJwuTNR5-85" target="a6xLcFi5BjF4kJwuTNR5-81">
          <mxGeometry relative="1" as="geometry">
            <mxPoint x="380" y="810" as="targetPoint"/>
            <Array as="points">
              <mxPoint x="610" y="790"/>
              <mxPoint x="380" y="790"/>
            </Array>
          </mxGeometry>
        </mxCell>
        <mxCell id="a6xLcFi5BjF4kJwuTNR5-85" value="&lt;span style=&quot;text-align: left&quot;&gt;TargetPositionImplementor&lt;/span&gt;" style="rounded=0;whiteSpace=wrap;html=1;fillColor=#A9C4EB;align=center;spacingLeft=0;fontSize=10;fontFamily=Helvetica;" vertex="1" parent="1">
          <mxGeometry x="540" y="740" width="140" height="20" as="geometry"/>
        </mxCell>
        <mxCell id="a6xLcFi5BjF4kJwuTNR5-86" style="edgeStyle=orthogonalEdgeStyle;rounded=0;orthogonalLoop=1;jettySize=auto;html=1;fillColor=#FFFFFF;fontFamily=Helvetica;fontSize=10;" edge="1" parent="1" source="a6xLcFi5BjF4kJwuTNR5-87" target="a6xLcFi5BjF4kJwuTNR5-81">
          <mxGeometry relative="1" as="geometry">
            <Array as="points">
              <mxPoint x="450" y="790"/>
              <mxPoint x="380" y="790"/>
            </Array>
          </mxGeometry>
        </mxCell>
        <mxCell id="a6xLcFi5BjF4kJwuTNR5-87" value="&lt;span style=&quot;text-align: left&quot;&gt;Target&amp;nbsp;&lt;/span&gt;Group" style="rounded=0;whiteSpace=wrap;html=1;fillColor=#FFE6CC;align=center;spacingLeft=4;fontSize=10;fontFamily=Helvetica;" vertex="1" parent="1">
          <mxGeometry x="380" y="740" width="140" height="20" as="geometry"/>
        </mxCell>
        <mxCell id="a6xLcFi5BjF4kJwuTNR5-88" style="edgeStyle=orthogonalEdgeStyle;rounded=0;orthogonalLoop=1;jettySize=auto;html=1;fillColor=#FFFFFF;fontFamily=Helvetica;fontSize=10;" edge="1" parent="1" source="a6xLcFi5BjF4kJwuTNR5-89" target="a6xLcFi5BjF4kJwuTNR5-81">
          <mxGeometry relative="1" as="geometry">
            <Array as="points">
              <mxPoint x="290" y="790"/>
              <mxPoint x="380" y="790"/>
            </Array>
          </mxGeometry>
        </mxCell>
        <mxCell id="a6xLcFi5BjF4kJwuTNR5-89" value="&lt;span style=&quot;text-align: left&quot;&gt;Target&lt;/span&gt;&amp;nbsp;GameObject ID" style="rounded=0;whiteSpace=wrap;html=1;fillColor=#CCFFFF;align=center;spacingLeft=4;fontSize=10;fontFamily=Helvetica;" vertex="1" parent="1">
          <mxGeometry x="220" y="740" width="140" height="20" as="geometry"/>
        </mxCell>
      </root>
    </mxGraphModel>
  </diagram>
</mxfile>
